<svg width="16" height="16" viewBox="0 0 16 16" fill="none" xmlns="http://www.w3.org/2000/svg">
<path d="M8.04053 0.25C3.76053 0.25 0.290527 3.72 0.290527 8C0.290527 12.28 3.76053 15.75 8.04053 15.75C12.3205 15.75 15.7905 12.28 15.7905 8C15.7905 3.72 12.3205 0.25 8.04053 0.25ZM11.6305 5.856L7.91853 11.53C7.91786 11.5307 7.91586 11.532 7.91586 11.5327C7.89653 11.562 7.88586 11.5947 7.86186 11.622C7.82786 11.6587 7.78453 11.678 7.74586 11.706C7.73586 11.7127 7.72653 11.7207 7.71586 11.7273C7.65586 11.7653 7.59386 11.79 7.52586 11.8067C7.50386 11.8127 7.48319 11.818 7.45986 11.822C7.40453 11.83 7.35253 11.83 7.29719 11.824C7.25853 11.8213 7.22186 11.816 7.18386 11.8067C7.14519 11.796 7.10919 11.7793 7.07253 11.762C7.04186 11.7473 7.00853 11.7433 6.97986 11.7253C6.95853 11.712 6.94719 11.6907 6.92853 11.674C6.92053 11.6673 6.91119 11.6653 6.90319 11.6587L4.74186 9.66C4.46653 9.40533 4.45053 8.976 4.70386 8.702C4.95719 8.428 5.38653 8.41067 5.66186 8.664L7.22653 10.1113L10.4959 5.11333C10.7012 4.80067 11.1205 4.712 11.4345 4.91667C11.7485 5.122 11.8365 5.54267 11.6312 5.85533L11.6305 5.856Z" fill="#0F6D38"/>
</svg>