<svg width="16" height="15" viewBox="0 0 16 15" fill="none" xmlns="http://www.w3.org/2000/svg">
<path d="M0.998675 14.9993H14.9042C15.2553 14.9993 15.5815 14.8152 15.7621 14.5131C15.9428 14.2125 15.9518 13.838 15.787 13.5283L8.84935 0.528941C8.67625 0.204129 8.33765 0 7.9687 0H7.96801C7.59906 0 7.26115 0.202749 7.08736 0.528252L0.118715 13.5277C-0.047484 13.8373 -0.0385189 14.2118 0.141473 14.5138C0.322154 14.8145 0.648346 15 0.999364 15L0.998675 14.9993ZM7.96732 10.9995C8.51902 10.9995 8.96727 11.4477 8.96727 11.9994C8.96727 12.5511 8.51902 12.9994 7.96732 12.9994C7.41562 12.9994 6.96737 12.5511 6.96737 11.9994C6.96737 11.4477 7.41562 10.9995 7.96732 10.9995ZM6.96737 9.01545V5.01563C6.96737 4.46393 7.41562 4.01568 7.96732 4.01568C8.51902 4.01568 8.96727 4.46393 8.96727 5.01563V9.01545C8.96727 9.56715 8.51902 10.0154 7.96732 10.0154C7.41562 10.0154 6.96737 9.56715 6.96737 9.01545Z" fill="#93182B"/>
</svg>